{
  "accessors": [
    {
      "bufferView": 2,
      "componentType": 5126,
      "count": 650,
      "max": [
        0.4449250102043152,
        0.22297300398349762,
        2.2699129581451416
      ],
      "min": [
        -0.4407300055027008,
        -0.1978919953107834,
        1.3813979625701904
      ],
      "type": "VEC3"
    },
    {
      "bufferView": 2,
      "byteOffset": 7800,
      "componentType": 5126,
      "count": 650,
      "max": [
        0.9920861721038818,
        0.9997865557670593,
        0.9395574331283569
      ],
      "min": [
        -0.9923486113548279,
        -0.9998391270637512,
        -0.9997983574867249
      ],
      "type": "VEC3"
    },
    {
      "bufferView": 1,
      "componentType": 5126,
      "count": 650,
      "max": [
        0.9926300048828125,
        0.9927819967269897
      ],
      "min": [
        0.005295000039041042,
        0.012206999585032463
      ],
      "type": "VEC2"
    },
    {
      "bufferView": 0,
      "componentType": 5125,
      "count": 3192,
      "type": "SCALAR"
    },
    {
      "bufferView": 2,
      "byteOffset": 15600,
      "componentType": 5126,
      "count": 2521,
      "max": [
        0.8944829702377319,
        0.18095700442790985,
        2.626322031021118
      ],
      "min": [
        -0.8947290182113647,
        -0.16755899786949158,
        0.35383298993110657
      ],
      "type": "VEC3"
    },
    {
      "bufferView": 2,
      "byteOffset": 45852,
      "componentType": 5126,
      "count": 2521,
      "max": [
        0.9995542168617249,
        0.9998972415924072,
        0.9997343420982361
      ],
      "min": [
        -0.9998379349708557,
        -0.9998059868812561,
        -0.9955902695655823
      ],
      "type": "VEC3"
    },
    {
      "bufferView": 1,
      "byteOffset": 5200,
      "componentType": 5126,
      "count": 2521,
      "max": [
        0.998885989189148,
        0.9930040240287781
      ],
      "min": [
        0.002090000081807375,
        0.003967000171542168
      ],
      "type": "VEC2"
    },
    {
      "bufferView": 0,
      "byteOffset": 12768,
      "componentType": 5125,
      "count": 12432,
      "type": "SCALAR"
    },
    {
      "bufferView": 2,
      "byteOffset": 76104,
      "componentType": 5126,
      "count": 482,
      "max": [
        0.40108901262283325,
        0.18035000562667847,
        0.2520979940891266
      ],
      "min": [
        -0.3993130028247833,
        -0.2486339956521988,
        0.0002680000034160912
      ],
      "type": "VEC3"
    },
    {
      "bufferView": 2,
      "byteOffset": 81888,
      "componentType": 5126,
      "count": 482,
      "max": [
        0.9833161234855652,
        0.9991340637207031,
        0.9999216794967651
      ],
      "min": [
        -0.9862057566642761,
        -0.9999755620956421,
        -0.999002993106842
      ],
      "type": "VEC3"
    },
    {
      "bufferView": 1,
      "byteOffset": 25368,
      "componentType": 5126,
      "count": 482,
      "max": [
        0.9914699792861938,
        0.9885560274124146
      ],
      "min": [
        0.008559999987483025,
        0.010452000424265862
      ],
      "type": "VEC2"
    },
    {
      "bufferView": 0,
      "byteOffset": 62496,
      "componentType": 5125,
      "count": 1596,
      "type": "SCALAR"
    },
    {
      "bufferView": 2,
      "byteOffset": 87672,
      "componentType": 5126,
      "count": 663,
      "max": [
        0.3740769922733307,
        0.2108670026063919,
        1.605299949645996
      ],
      "min": [
        -0.3722969889640808,
        -0.20641599595546722,
        0.008967000059783459
      ],
      "type": "VEC3"
    },
    {
      "bufferView": 2,
      "byteOffset": 95628,
      "componentType": 5126,
      "count": 663,
      "max": [
        0.9999746084213257,
        0.9999749660491943,
        0.9945250153541565
      ],
      "min": [
        -0.9997588992118835,
        -0.9997588992118835,
        -0.9471740126609802
      ],
      "type": "VEC3"
    },
    {
      "bufferView": 1,
      "byteOffset": 29224,
      "componentType": 5126,
      "count": 663,
      "max": [
        0.99652099609375,
        0.9935449957847595
      ],
      "min": [
        0.002563999965786934,
        0.002518000081181526
      ],
      "type": "VEC2"
    },
    {
      "bufferView": 0,
      "byteOffset": 68880,
      "componentType": 5125,
      "count": 3144,
      "type": "SCALAR"
    },
    {
      "bufferView": 2,
      "byteOffset": 103584,
      "componentType": 5126,
      "count": 285,
      "max": [
        0.1358029991388321,
        0.16708600521087646,
        2.6857240200042725
      ],
      "min": [
        -0.22936800122261047,
        -0.22869999706745148,
        2.472378969192505
      ],
      "type": "VEC3"
    },
    {
      "bufferView": 2,
      "byteOffset": 107004,
      "componentType": 5126,
      "count": 285,
      "max": [
        0.9928385615348816,
        0.9999746084213257,
        0.999797523021698
      ],
      "min": [
        -0.9852619767189026,
        -0.983182430267334,
        -0.9985105991363525
      ],
      "type": "VEC3"
    },
    {
      "bufferView": 1,
      "byteOffset": 34528,
      "componentType": 5126,
      "count": 285,
      "max": [
        0.991989016532898,
        0.9830319881439209
      ],
      "min": [
        0.012130999937653542,
        0.01962300017476082
      ],
      "type": "VEC2"
    },
    {
      "bufferView": 0,
      "byteOffset": 81456,
      "componentType": 5125,
      "count": 1188,
      "type": "SCALAR"
    },
    {
      "bufferView": 2,
      "byteOffset": 110424,
      "componentType": 5126,
      "count": 1272,
      "max": [
        0.1480029970407486,
        0.1815270036458969,
        2.562736988067627
      ],
      "min": [
        -0.1721390038728714,
        -0.1516440063714981,
        2.373321056365967
      ],
      "type": "VEC3"
    },
    {
      "bufferView": 2,
      "byteOffset": 125688,
      "componentType": 5126,
      "count": 1272,
      "max": [
        0.9996621012687683,
        0.9999746084213257,
        0.9589353203773499
      ],
      "min": [
        -0.9995022416114807,
        -0.9992842674255371,
        -0.6996757388114929
      ],
      "type": "VEC3"
    },
    {
      "bufferView": 1,
      "byteOffset": 36808,
      "componentType": 5126,
      "count": 1272,
      "max": [
        0.9929500222206116,
        0.9965670108795166
      ],
      "min": [
        0.026642000302672386,
        0.009948999620974064
      ],
      "type": "VEC2"
    },
    {
      "bufferView": 0,
      "byteOffset": 86208,
      "componentType": 5125,
      "count": 3702,
      "type": "SCALAR"
    }
  ],
  "asset": {
    "extras": {
      "author": "PACE GAMING FF (https://sketchfab.com/MDARBAZ_.OR___-PACEGAMINGFF)",
      "license": "CC-BY-4.0 (http://creativecommons.org/licenses/by/4.0/)",
      "source": "https://sketchfab.com/3d-models/freefire-new-3d-model-soccer-by-pace-gaming-9c2b9416ec994ed99535af4a7fcde4b6",
      "title": "freefire new 3d model soccer by pace gaming"
    },
    "generator": "Sketchfab-14.64.0",
    "version": "2.0"
  },
  "bufferViews": [
    {
      "buffer": 0,
      "byteLength": 101016,
      "name": "floatBufferViews",
      "target": 34963
    },
    {
      "buffer": 0,
      "byteLength": 46984,
      "byteOffset": 101016,
      "byteStride": 8,
      "name": "floatBufferViews",
      "target": 34962
    },
    {
      "buffer": 0,
      "byteLength": 140952,
      "byteOffset": 148000,
      "byteStride": 12,
      "name": "floatBufferViews",
      "target": 34962
    }
  ],
  "buffers": [
    {
      "byteLength": 288952,
      "uri": "scene.bin"
    }
  ],
  "images": [
    {
      "uri": "textures/mat0.038_baseColor.png"
    },
    {
      "uri": "textures/mat0.039_baseColor.png"
    },
    {
      "uri": "textures/mat0.040_baseColor.png"
    },
    {
      "uri": "textures/mat0.041_baseColor.png"
    },
    {
      "uri": "textures/mat0.042_baseColor.png"
    },
    {
      "uri": "textures/mat0.043_baseColor.png"
    }
  ],
  "materials": [
    {
      "doubleSided": true,
      "name": "mat0.038",
      "pbrMetallicRoughness": {
        "baseColorTexture": {
          "index": 0
        },
        "metallicFactor": 0.0,
        "roughnessFactor": 0.6342256411356907
      }
    },
    {
      "doubleSided": true,
      "name": "mat0.039",
      "pbrMetallicRoughness": {
        "baseColorTexture": {
          "index": 1
        },
        "metallicFactor": 0.0,
        "roughnessFactor": 0.6342256411356907
      }
    },
    {
      "doubleSided": true,
      "name": "mat0.040",
      "pbrMetallicRoughness": {
        "baseColorTexture": {
          "index": 2
        },
        "metallicFactor": 0.0,
        "roughnessFactor": 0.6342256411356907
      }
    },
    {
      "doubleSided": true,
      "name": "mat0.041",
      "pbrMetallicRoughness": {
        "baseColorTexture": {
          "index": 3
        },
        "metallicFactor": 0.0,
        "roughnessFactor": 0.6342256411356907
      }
    },
    {
      "doubleSided": true,
      "name": "mat0.042",
      "pbrMetallicRoughness": {
        "baseColorTexture": {
          "index": 4
        },
        "metallicFactor": 0.0,
        "roughnessFactor": 0.6342256411356907
      }
    },
    {
      "doubleSided": true,
      "name": "mat0.043",
      "pbrMetallicRoughness": {
        "baseColorTexture": {
          "index": 5
        },
        "metallicFactor": 0.0,
        "roughnessFactor": 0.6342256411356907
      }
    }
  ],
  "meshes": [
    {
      "name": "Object_0",
      "primitives": [
        {
          "attributes": {
            "NORMAL": 1,
            "POSITION": 0,
            "TEXCOORD_0": 2
          },
          "indices": 3,
          "material": 0,
          "mode": 4
        }
      ]
    },
    {
      "name": "Object_1",
      "primitives": [
        {
          "attributes": {
            "NORMAL": 5,
            "POSITION": 4,
            "TEXCOORD_0": 6
          },
          "indices": 7,
          "material": 1,
          "mode": 4
        }
      ]
    },
    {
      "name": "Object_2",
      "primitives": [
        {
          "attributes": {
            "NORMAL": 9,
            "POSITION": 8,
            "TEXCOORD_0": 10
          },
          "indices": 11,
          "material": 2,
          "mode": 4
        }
      ]
    },
    {
      "name": "Object_3",
      "primitives": [
        {
          "attributes": {
            "NORMAL": 13,
            "POSITION": 12,
            "TEXCOORD_0": 14
          },
          "indices": 15,
          "material": 3,
          "mode": 4
        }
      ]
    },
    {
      "name": "Object_4",
      "primitives": [
        {
          "attributes": {
            "NORMAL": 17,
            "POSITION": 16,
            "TEXCOORD_0": 18
          },
          "indices": 19,
          "material": 4,
          "mode": 4
        }
      ]
    },
    {
      "name": "Object_5",
      "primitives": [
        {
          "attributes": {
            "NORMAL": 21,
            "POSITION": 20,
            "TEXCOORD_0": 22
          },
          "indices": 23,
          "material": 5,
          "mode": 4
        }
      ]
    }
  ],
  "nodes": [
    {
      "children": [
        1
      ],
      "matrix": [
        1.0,
        0.0,
        0.0,
        0.0,
        0.0,
        2.220446049250313e-16,
        -1.0,
        0.0,
        0.0,
        1.0,
        2.220446049250313e-16,
        0.0,
        0.0,
        0.0,
        0.0,
        1.0
      ],
      "name": "Sketchfab_model"
    },
    {
      "children": [
        2,
        3,
        4,
        5,
        6,
        7
      ],
      "name": "6.obj.cleaner.materialmerger.gles"
    },
    {
      "mesh": 0,
      "name": "Object_2"
    },
    {
      "mesh": 1,
      "name": "Object_3"
    },
    {
      "mesh": 2,
      "name": "Object_4"
    },
    {
      "mesh": 3,
      "name": "Object_5"
    },
    {
      "mesh": 4,
      "name": "Object_6"
    },
    {
      "mesh": 5,
      "name": "Object_7"
    }
  ],
  "samplers": [
    {
      "magFilter": 9729,
      "minFilter": 9987,
      "wrapS": 10497,
      "wrapT": 10497
    }
  ],
  "scene": 0,
  "scenes": [
    {
      "name": "Sketchfab_Scene",
      "nodes": [
        0
      ]
    }
  ],
  "textures": [
    {
      "sampler": 0,
      "source": 0
    },
    {
      "sampler": 0,
      "source": 1
    },
    {
      "sampler": 0,
      "source": 2
    },
    {
      "sampler": 0,
      "source": 3
    },
    {
      "sampler": 0,
      "source": 4
    },
    {
      "sampler": 0,
      "source": 5
    }
  ]
}
